# xmcd
#
# Track frame offsets: 
#        150
#        33538
#        68783
#        90638
#        109296
#        128405
#        145704
#        169741
#        194208
#        213638
#        245299
#        277962
#        307514
#        322379
#
# Disc length: 4597 seconds
#
# Revision: 0
# Processed by: cddbd v1.5.2PL0 Copyright (c) Steve Scherf et al.
# Submitted via: ExactAudioCopy v0.99pb5
#
DISCID=cc11f30e
DTITLE=Various Artist - Rare Funky Groove Collector [CD 1)
DYEAR=2005
DGENRE=Disco
TTITLE0=Greg Perry - It Takes Heart
TTITLE1=T. J. Johnson Band - I Can Make It (Good For You)
TTITLE2=Nijel - Dance So Fine
TTITLE3=Direct Pressure - Let Me Love You
TTITLE4=Malik - My Love
TTITLE5=Larry Garner - Come And Dance
TTITLE6=Serena - Get Your Body Up
TTITLE7=Shirley Lewis - Love's Warming Up
TTITLE8=Bridget Cooper - (Get Into) The Love Groove
TTITLE9=Amra - Special Kind Of Love (I Need What You Got)
TTITLE10=Toba - Moving Up
TTITLE11=Butch Dayo - I Bet Cha
TTITLE12=Promise - Betcha'
TTITLE13=The Sparkles - Trying To Get Over
EXTD=
EXTT0=
EXTT1=
EXTT2=
EXTT3=
EXTT4=
EXTT5=
EXTT6=
EXTT7=
EXTT8=
EXTT9=
EXTT10=
EXTT11=
EXTT12=
EXTT13=
PLAYORDER=
